<svg version="1.1" xmlns="http://www.w3.org/2000/svg" xmlns:xlink="http://www.w3.org/1999/xlink" width="123.30954" height="124.69278" viewBox="0,0,123.30954,124.69278"><defs><linearGradient x1="178.34645" y1="180.00039" x2="301.65464" y2="180.00039" gradientUnits="userSpaceOnUse" id="color-1"><stop offset="0.012" stop-color="#a7a9ac"/><stop offset="1" stop-color="#414042"/></linearGradient><linearGradient x1="182.97132" y1="179.99864" x2="297.02855" y2="179.99864" gradientUnits="userSpaceOnUse" id="color-2"><stop offset="0" stop-color="#d1d2d3"/><stop offset="1" stop-color="#a4a5a8"/></linearGradient></defs><g transform="translate(-178.34523,-112.42032)"><g data-paper-data="{&quot;isPaintingLayer&quot;:true}" fill-rule="nonzero" stroke="none" stroke-width="1" stroke-linecap="butt" stroke-linejoin="miter" stroke-miterlimit="10" stroke-dasharray="" stroke-dashoffset="0" style="mix-blend-mode: normal"><path d="M301.65477,216.45029c0,9.24733 -5.2223,16.74522 -11.66008,16.74522h-99.99074c-6.43913,0 -11.65872,-7.49983 -11.65872,-16.74522v-72.90252c0,-9.24733 5.21959,-16.74327 11.65872,-16.74327h99.98939c6.44184,0 11.66008,7.49594 11.66008,16.74327v72.90252z" fill="url(#color-1)"/><path d="M297.02733,143.54777v72.90058c0,5.56942 -3.15317,10.09967 -7.03399,10.09967h-99.98939c-3.87676,0 -7.03263,-4.53026 -7.03263,-10.09967v-72.90252c0,-5.56942 3.15588,-10.09967 7.03263,-10.09967h99.98939c3.88082,0 7.03399,4.5322 7.03399,10.10162z" fill="url(#color-2)"/><text transform="translate(220.0937,209.27989) scale(2.22666,2.22666)" font-size="40" xml:space="preserve" fill="#000000" fill-rule="nonzero" stroke="none" stroke-width="1" stroke-linecap="butt" stroke-linejoin="miter" stroke-miterlimit="10" stroke-dasharray="" stroke-dashoffset="0" font-family="Sans Serif" font-weight="normal" text-anchor="start" style="mix-blend-mode: normal"><tspan x="0" dy="0">?</tspan></text></g></g></svg>